<svg width="1460" height="380" viewBox="0 0 1460 380" fill="none" xmlns="http://www.w3.org/2000/svg">
  <defs>
    <clipPath id="left-ring">
      <path fill-rule="evenodd" clip-rule="evenodd" d="M278 150C278 205.228 233.228 250 178 250C122.772 250 78 205.228 78 150C78 94.7715 122.772 50 178 50C233.228 50 278 94.7715 278 150ZM232 150C232 179.823 207.823 204 178 204C148.177 204 124 179.823 124 150C124 120.177 148.177 96 178 96C207.823 96 232 120.177 232 150Z"/>
    </clipPath>
    <clipPath id="right-ring">
      <path fill-rule="evenodd" clip-rule="evenodd" d="M500 150C500 205.228 455.228 250 400 250C344.772 250 300 205.228 300 150C300 94.7715 344.772 50 400 50C455.228 50 500 94.7715 500 150ZM454 150C454 179.823 429.823 204 400 204C370.177 204 346 179.823 346 150C346 120.177 370.177 96 400 96C429.823 96 454 120.177 454 150Z"/>
    </clipPath>
    <clipPath id="band">
      <rect x="255" y="26" width="90" height="248" rx="18" transform="rotate(45 255 26)"/>
    </clipPath>
  </defs>

  <g clip-path="url(#left-ring)" stroke="#67ADAE" stroke-width="13" stroke-linecap="round">
    <line x1="22" y1="2" x2="274" y2="254"/>
    <line x1="39" y1="-15" x2="291" y2="237"/>
    <line x1="56" y1="-32" x2="308" y2="220"/>
    <line x1="73" y1="-49" x2="325" y2="203"/>
    <line x1="90" y1="-66" x2="342" y2="186"/>
    <line x1="107" y1="-83" x2="359" y2="169"/>
    <line x1="124" y1="-100" x2="376" y2="152"/>
    <line x1="141" y1="-117" x2="393" y2="135"/>
    <line x1="158" y1="-134" x2="410" y2="118"/>
    <line x1="175" y1="-151" x2="427" y2="101"/>
    <line x1="192" y1="-168" x2="444" y2="84"/>
    <line x1="209" y1="-185" x2="461" y2="67"/>
    <line x1="226" y1="-202" x2="478" y2="50"/>
    <line x1="243" y1="-219" x2="495" y2="33"/>
    <line x1="260" y1="-236" x2="512" y2="16"/>
    <line x1="277" y1="-253" x2="529" y2="-1"/>
    <line x1="-7" y1="31" x2="245" y2="283"/>
    <line x1="10" y1="48" x2="262" y2="300"/>
    <line x1="27" y1="65" x2="279" y2="317"/>
  </g>

  <g clip-path="url(#right-ring)" stroke="#CBDD6A" stroke-width="13" stroke-linecap="round">
    <line x1="244" y1="2" x2="496" y2="254"/>
    <line x1="261" y1="-15" x2="513" y2="237"/>
    <line x1="278" y1="-32" x2="530" y2="220"/>
    <line x1="295" y1="-49" x2="547" y2="203"/>
    <line x1="312" y1="-66" x2="564" y2="186"/>
    <line x1="329" y1="-83" x2="581" y2="169"/>
    <line x1="346" y1="-100" x2="598" y2="152"/>
    <line x1="363" y1="-117" x2="615" y2="135"/>
    <line x1="380" y1="-134" x2="632" y2="118"/>
    <line x1="397" y1="-151" x2="649" y2="101"/>
    <line x1="414" y1="-168" x2="666" y2="84"/>
    <line x1="431" y1="-185" x2="683" y2="67"/>
    <line x1="448" y1="-202" x2="700" y2="50"/>
    <line x1="465" y1="-219" x2="717" y2="33"/>
    <line x1="482" y1="-236" x2="734" y2="16"/>
    <line x1="499" y1="-253" x2="751" y2="-1"/>
    <line x1="215" y1="31" x2="467" y2="283"/>
    <line x1="232" y1="48" x2="484" y2="300"/>
    <line x1="249" y1="65" x2="501" y2="317"/>
  </g>

  <rect x="255" y="26" width="90" height="248" rx="18" transform="rotate(45 255 26)" fill="#69429F"/>
  <g clip-path="url(#band)" stroke="#69429F" stroke-width="13" stroke-linecap="round">
    <line x1="185" y1="6" x2="437" y2="258"/>
    <line x1="202" y1="-11" x2="454" y2="241"/>
    <line x1="219" y1="-28" x2="471" y2="224"/>
    <line x1="236" y1="-45" x2="488" y2="207"/>
    <line x1="253" y1="-62" x2="505" y2="190"/>
    <line x1="270" y1="-79" x2="522" y2="173"/>
    <line x1="287" y1="-96" x2="539" y2="156"/>
    <line x1="304" y1="-113" x2="556" y2="139"/>
    <line x1="321" y1="-130" x2="573" y2="122"/>
    <line x1="338" y1="-147" x2="590" y2="105"/>
    <line x1="355" y1="-164" x2="607" y2="88"/>
    <line x1="372" y1="-181" x2="624" y2="71"/>
    <line x1="389" y1="-198" x2="641" y2="54"/>
  </g>

  <g transform="translate(294 149) rotate(45)">
    <text x="0" y="0" fill="#FFFFFF" font-family="Arial, Helvetica, sans-serif" font-size="58" font-weight="700" text-anchor="middle" dominant-baseline="central">WMO</text>
  </g>

  <text x="622" y="182" fill="#69429F" font-family="Arial, Helvetica, sans-serif" font-size="185" font-weight="700" letter-spacing="0.02em">WMO</text>
  <text x="632" y="290" fill="#69429F" font-family="Arial, Helvetica, sans-serif" font-size="72" font-weight="400" letter-spacing="0.035em">INTERNATIONAL</text>
</svg>
